<?xml version="1.0" encoding="UTF-8"?>
<svg version="1.1" xmlns="http://www.w3.org/2000/svg" width="1200" height="1200">
<path d="M0 0 C7.64608743 6.65991613 14.69014186 14.01275792 21.84903115 21.18480685 C24.34959622 23.68775599 26.8559491 26.18489904 29.36153185 28.68282336 C33.74476322 33.05425249 38.12428922 37.42936619 42.50135541 41.80696809 C49.01042917 48.31683759 55.5251767 54.8210072 62.04096152 61.32415863 C75.03374102 74.29224518 88.01858299 87.26826283 101.00153068 100.24619131 C102.0090476 101.25331647 102.0090476 101.25331647 103.0369184 102.28078759 C104.04650882 103.28998759 104.04650882 103.28998759 105.07649499 104.31957547 C112.54478707 111.7847817 120.01478828 119.24827704 127.48484731 126.7117151 C150.05484774 149.26207479 172.62323148 171.81404929 195.18482709 194.37281835 C195.90589262 195.09378982 196.62695814 195.81476128 197.36987414 196.55758037 C200.29188969 199.47921745 203.21389801 202.40086177 206.13590459 205.32250784 C208.33507869 207.52141022 210.53425528 209.72031013 212.73343205 211.91920984 C213.46012155 212.64581131 214.18681105 213.37241278 214.93552144 214.12103248 C237.77379945 236.95640439 260.62165613 259.78215531 283.47659612 282.60085046 C309.16668408 308.25019825 334.84822832 333.90806093 360.51810515 359.5776369 C363.25606189 362.31549682 365.99405359 365.0533218 368.73207021 367.79112184 C369.40621248 368.46522 370.08035476 369.13931816 370.77492558 369.83384354 C381.61452794 380.67232696 392.46224706 391.50265116 403.31286901 402.33010132 C414.21954362 413.21391615 425.11685804 424.10703389 436.00480367 435.00958528 C442.46934878 441.48227137 448.94069586 447.94797482 455.42213957 454.40374033 C459.7561525 458.72196865 464.0809375 463.04929704 468.39848265 467.38399014 C470.85518365 469.84993794 473.31553611 472.31188707 475.78725155 474.76279297 C496.04966354 494.88694726 511.32650007 516.1665959 511.72464299 545.96095788 C511.47744755 573.75671229 499.3321554 595.59090223 479.88967919 614.92819059 C479.05872846 615.7626474 478.22777773 616.5971042 477.37164667 617.45684758 C475.081953 619.75419527 472.78790058 622.0470799 470.49185886 624.33807985 C467.98820653 626.83844414 465.49036723 629.34460505 462.991754 631.85000306 C458.61758306 636.2344496 454.23972159 640.61518351 449.85938001 644.99346483 C443.34545052 651.50433804 436.83723338 658.02089924 430.33006514 664.53852895 C418.03085327 676.8570619 405.72480823 689.16875334 393.41650579 701.47820241 C383.91117096 710.98445696 374.40743788 720.49231002 364.9048245 730.00128496 C362.16773371 732.74017087 359.43063517 735.47904904 356.69353431 738.21792489 C356.01305384 738.89884746 355.33257337 739.57977003 354.63147228 740.28132661 C335.49661563 759.42848782 316.35955573 778.57344466 297.21810174 797.7140106 C296.49673904 798.43534214 295.77537634 799.15667368 295.03215417 799.89986375 C291.37612349 803.55572822 287.72007688 807.21157675 284.06402675 810.86742175 C283.33794354 811.59346508 282.61186033 812.3195084 281.86377459 813.06755303 C280.39545867 814.53578808 278.92714138 816.00402178 277.45882273 817.47225411 C254.61148598 840.31836521 231.7722857 863.1725831 208.9392426 886.03297937 C183.27702806 911.72592378 157.6080594 937.41209457 131.92954582 963.08874971 C129.19085413 965.82729214 126.45218836 968.56586049 123.71354032 971.30444658 C123.03922823 971.97873535 122.36491615 972.65302413 121.67017037 973.34774589 C110.82629763 984.19155713 99.98885005 995.04176772 89.15362872 1005.8942227 C78.26227442 1016.8025413 67.36343666 1027.70333875 56.45702741 1038.59660537 C49.9813001 1045.06494936 43.51113867 1051.5387446 37.04892621 1058.02059126 C32.72713656 1062.35439889 28.39806468 1066.68084146 24.06310309 1071.00147338 C21.59653751 1073.46029151 19.13315021 1075.92206645 16.67860351 1078.39288766 C-4.35505208 1099.53883601 -25.92469789 1115.2210831 -57.02535701 1115.33595788 C-80.76427958 1115.30189568 -100.46711175 1106.38215095 -117.52535701 1090.08595788 C-118.15184138 1089.53423913 -118.77832576 1088.98252038 -119.42379451 1088.41408288 C-133.92758802 1075.15722185 -141.5690636 1052.93836023 -142.72848201 1033.71877038 C-143.11725953 1004.62525258 -131.81402203 982.91294386 -111.77043283 962.15030074 C-107.32912002 957.6138653 -102.8311715 953.13434452 -98.33366084 948.65375268 C-96.5995742 946.91879257 -94.86592768 945.18339246 -93.13268036 943.44759387 C-89.38181182 939.69320168 -85.6278952 935.94189817 -81.87117457 932.1933645 C-76.28520994 926.61953922 -70.70506198 921.03991712 -65.12603891 915.45914486 C-55.7381487 906.06863508 -46.34563417 896.68276375 -36.95043063 887.29957139 C-27.65452033 878.01551476 -18.36069871 868.72937533 -9.06962848 859.44047487 C-8.49089166 858.86187553 -7.91215484 858.28327619 -7.31588054 857.68714354 C-4.37651092 854.74845063 -1.43717828 851.80972073 1.50214014 848.8709766 C22.29520699 828.08210518 43.09290209 807.29786968 63.89334416 786.51637781 C84.09459275 766.33351223 104.29372893 746.14853634 124.49002385 725.96071374 C125.11309243 725.33790821 125.73616102 724.71510268 126.37811047 724.07342426 C132.63549477 717.81867711 138.8928363 711.56388718 145.15014652 705.30906592 C157.89582569 692.56845852 170.64179016 679.82813655 183.38792729 667.0879873 C183.97391147 666.5022777 184.55989565 665.9165681 185.16363693 665.31310973 C224.26252468 626.23260828 263.36808227 587.15878105 302.47464299 548.08595788 C301.16824905 545.20465727 299.77898837 543.14114599 297.54354972 540.90991962 C296.93932593 540.30196992 296.33510215 539.69402023 295.71256855 539.06764781 C294.71357091 538.07781752 294.71357091 538.07781752 293.69439149 537.06799066 C292.98566322 536.35785349 292.27693495 535.64771633 291.54673007 534.91605985 C289.15251171 532.51954152 286.75117953 530.13027845 284.34987187 527.74086511 C282.62171231 526.0139808 280.89399626 524.28665254 279.16668779 522.55891693 C275.40064953 518.79394967 271.63152381 515.0321136 267.85968328 511.27296197 C262.25053807 505.68263333 256.64715352 500.08655745 251.04501485 494.48920853 C241.6190627 485.07158168 232.18867288 475.65841071 222.75598264 466.2475332 C209.86844284 453.38963411 196.98794619 440.52469661 184.10941375 427.65777642 C178.11020989 421.66398906 172.11068961 415.67051843 166.11111093 409.67710626 C165.51044395 409.07705506 164.90977696 408.47700387 164.29090795 407.8587693 C149.98770046 393.57035116 135.68158238 379.2848484 121.37478948 365.00002038 C120.74869815 364.37488711 120.12260682 363.74975383 119.47754303 363.10567712 C104.87663891 348.52714449 90.27487191 333.94947656 75.67209172 319.37282312 C70.61041487 314.32018114 65.54874887 309.26752829 60.48709416 304.21486413 C59.55005487 303.27949321 59.55005487 303.27949321 58.59408549 302.3252259 C44.325669 288.08216793 30.05846234 273.83790184 15.79572701 259.5891546 C15.19583228 258.98984844 14.59593754 258.39054229 13.97786417 257.77307534 C7.98779443 251.7888119 1.99798243 245.80429058 -3.99146828 239.81940757 C-6.93854441 236.87459641 -9.88569397 233.92985875 -12.83289599 230.98517358 C-13.41291939 230.40564546 -13.99294278 229.82611733 -14.59054264 229.22902775 C-23.91777036 219.91012528 -33.25066146 210.59691461 -42.58587547 201.28601312 C-51.9739736 191.92220694 -61.3567815 182.55312756 -70.73418332 173.17860931 C-76.3019444 167.61291242 -81.87387588 162.05146811 -87.45191221 156.4960689 C-91.6223282 152.34165729 -95.78482919 148.17937779 -99.94436549 144.01407152 C-101.62419059 142.33436628 -103.30655159 140.65719233 -104.99173946 138.98286742 C-126.3715639 117.73397806 -126.3715639 117.73397806 -132.83785701 104.27345788 C-133.16342586 103.60894617 -133.4889947 102.94443445 -133.82442927 102.25978601 C-143.85306093 80.97124494 -143.86003746 56.82839859 -136.06832576 34.82423913 C-131.99511335 24.52709372 -125.85048564 15.35206153 -118.52535701 7.08595788 C-117.93496638 6.4014657 -117.34457576 5.71697351 -116.73629451 5.01173913 C-86.61721308 -27.60658522 -33.01013685 -27.42345426 0 0 Z " fill="#000000" transform="translate(487.52535700798035,52.91404211521149)"/>
</svg>
