<?xml version="1.0" standalone="no"?>
<!DOCTYPE svg PUBLIC "-//W3C//DTD SVG 20010904//EN"
 "http://www.w3.org/TR/2001/REC-SVG-20010904/DTD/svg10.dtd">
<svg version="1.0" xmlns="http://www.w3.org/2000/svg"
 width="550.000000pt" height="250.000000pt" viewBox="0 0 550.000000 250.000000"
 preserveAspectRatio="xMidYMid meet">

<g transform="translate(0.000000,250.000000) scale(0.100000,-0.100000)"
fill="#000000" stroke="none">
<path d="M2675 2371 c-104 -57 -627 -338 -725 -389 -47 -24 -112 -59 -145 -77
-68 -37 -166 -89 -310 -165 -55 -29 -104 -57 -110 -61 -5 -5 49 -9 123 -9
l132 0 0 -395 c0 -388 0 -395 20 -395 20 0 20 7 20 420 l0 419 -57 3 -58 3 90
49 c75 41 325 175 1002 537 l93 50 142 -79 c472 -262 602 -331 612 -325 6 4
63 52 126 107 63 56 123 107 132 115 15 11 25 7 77 -35 33 -27 60 -54 60 -61
1 -6 -51 -55 -114 -109 -63 -54 -114 -103 -112 -109 2 -5 57 -42 123 -82 65
-40 125 -80 132 -90 9 -13 12 -112 12 -415 l0 -398 25 0 25 0 0 138 c0 76 -3
267 -7 424 l-6 285 -114 68 c-62 37 -115 71 -118 75 -2 4 50 53 116 110 66 57
116 106 112 110 -4 3 -50 41 -101 84 l-93 77 -28 -23 c-16 -13 -79 -67 -140
-120 -62 -54 -117 -98 -124 -98 -7 0 -32 12 -57 26 -40 23 -295 163 -420 232
-25 13 -93 51 -151 83 -58 32 -108 59 -110 59 -2 0 -35 -18 -74 -39z"/>
<path d="M1855 1678 c-3 -13 -4 -196 -3 -408 l3 -385 949 -3 c753 -2 951 0
958 10 9 15 11 768 2 792 -6 14 -99 16 -955 16 l-949 0 -5 -22z m1865 -388 l0
-370 -910 0 -910 0 0 370 0 370 910 0 910 0 0 -370z"/>
<path d="M1975 1557 c-3 -7 -4 -131 -3 -277 l3 -265 630 0 630 0 3 269 c2 209
-1 271 -10 278 -7 4 -291 8 -631 8 -489 0 -619 -3 -622 -13z m1217 -264 c2
-144 -1 -231 -7 -235 -5 -4 -271 -7 -590 -5 l-580 2 -3 233 -2 232 589 0 590
0 3 -227z"/>
<path d="M3303 1523 c-16 -6 -17 -35 -1 -51 15 -15 55 -16 63 -1 4 5 4 21 1
35 -6 23 -31 30 -63 17z"/>
<path d="M3462 1518 c-28 -28 1 -64 43 -54 18 5 25 13 25 30 0 33 -43 49 -68
24z"/>
<path d="M3621 1516 c-9 -11 -10 -20 -1 -36 13 -25 57 -24 73 2 23 36 -45 67
-72 34z"/>
<path d="M3299 1334 c-19 -23 1 -49 37 -49 20 0 30 6 32 18 8 40 -43 63 -69
31z"/>
<path d="M3459 1334 c-19 -23 1 -49 37 -49 20 0 30 6 32 18 8 40 -43 63 -69
31z"/>
<path d="M3624 1336 c-26 -20 -7 -51 31 -51 35 0 54 27 36 49 -17 20 -41 20
-67 2z"/>
<path d="M3455 1241 c-101 -25 -144 -109 -95 -188 73 -120 290 -68 290 69 0
46 -51 102 -107 117 -42 12 -45 12 -88 2z m100 -56 c66 -32 69 -101 6 -138
-63 -37 -163 -7 -176 54 -17 76 82 125 170 84z"/>
<path d="M327 706 c-48 -13 -90 -44 -109 -81 -33 -60 -27 -151 13 -207 46 -65
160 -88 238 -49 52 27 67 47 51 66 -12 14 -15 14 -34 -3 -71 -65 -179 -53
-227 25 -17 28 -20 45 -17 91 4 49 9 60 42 88 20 17 51 34 68 38 39 8 97 -8
132 -35 21 -16 30 -19 39 -10 16 16 -1 41 -44 62 -49 25 -97 29 -152 15z"/>
<path d="M1860 650 l0 -71 -26 20 c-18 14 -41 21 -73 21 -140 0 -189 -169 -72
-247 41 -28 85 -29 134 -4 29 15 37 16 37 5 0 -8 9 -14 20 -14 20 0 20 5 18
177 -3 160 -5 178 -20 181 -16 3 -18 -5 -18 -68z m-26 -101 c24 -27 27 -38 23
-73 -10 -74 -81 -108 -147 -69 -52 30 -65 92 -29 137 43 55 105 57 153 5z"/>
<path d="M2894 706 c-10 -26 4 -48 28 -44 17 2 23 10 23 28 0 18 -6 26 -23 28
-13 2 -25 -3 -28 -12z"/>
<path d="M4720 650 l0 -71 -26 20 c-18 14 -41 21 -73 21 -144 0 -191 -175 -68
-250 40 -25 82 -25 130 -1 29 15 37 16 37 5 0 -8 9 -14 20 -14 20 0 20 5 18
177 -3 160 -5 178 -20 181 -16 3 -18 -5 -18 -68z m-26 -101 c24 -27 27 -38 23
-73 -7 -49 -44 -86 -87 -86 -89 0 -140 89 -89 154 43 55 105 57 153 5z"/>
<path d="M2486 688 c-8 -37 -36 -271 -36 -301 0 -20 5 -27 19 -27 16 0 20 13
30 88 6 49 11 98 11 110 0 41 15 21 67 -89 29 -60 57 -109 63 -109 5 0 36 53
69 117 l58 118 7 -55 c20 -151 27 -180 48 -180 16 0 19 5 14 28 -3 15 -13 83
-21 152 -26 198 -21 197 -101 38 -38 -76 -71 -138 -74 -137 -3 0 -34 61 -69
135 -36 74 -68 134 -73 134 -4 0 -10 -10 -12 -22z"/>
<path d="M654 601 c-85 -52 -80 -177 9 -231 41 -25 83 -25 130 0 31 17 37 17
37 5 0 -8 9 -15 20 -15 20 0 20 5 18 127 -3 112 -5 128 -20 131 -11 2 -18 -3
-18 -12 0 -20 -9 -20 -34 -1 -28 21 -105 19 -142 -4z m117 -27 c89 -46 58
-184 -41 -184 -86 0 -130 110 -67 167 39 36 65 40 108 17z"/>
<path d="M950 600 c-40 -40 -24 -77 67 -147 23 -18 26 -25 17 -40 -13 -22 -50
-29 -69 -13 -16 13 -45 7 -45 -10 0 -6 16 -18 34 -27 44 -21 94 -8 115 28 22
40 7 75 -49 115 -52 38 -60 53 -35 74 12 10 20 9 41 -4 21 -14 28 -15 40 -5
14 11 13 15 -8 31 -31 24 -83 23 -108 -2z"/>
<path d="M1194 601 c-32 -20 -64 -74 -64 -110 0 -12 6 -36 14 -54 33 -78 112
-107 186 -68 32 17 40 18 40 6 0 -8 9 -15 20 -15 20 0 20 5 18 127 -3 112 -5
128 -20 131 -13 2 -18 -3 -18 -18 l0 -21 -26 20 c-35 27 -107 28 -150 2z m112
-26 c71 -29 80 -136 14 -170 -36 -19 -63 -19 -99 0 -71 36 -59 149 19 178 23
9 28 8 66 -8z"/>
<path d="M2024 601 c-32 -20 -64 -74 -64 -110 0 -63 56 -130 117 -138 87 -12
153 49 153 141 0 43 -4 53 -39 87 -34 35 -44 39 -87 39 -30 0 -61 -7 -80 -19z
m104 -22 c66 -23 84 -109 33 -160 -83 -82 -212 34 -140 125 19 24 49 43 70 45
3 1 20 -4 37 -10z"/>
<path d="M2900 490 c0 -123 1 -130 20 -130 19 0 20 7 20 130 0 123 -1 130 -20
130 -19 0 -20 -7 -20 -130z"/>
<path d="M3071 603 c-36 -18 -70 -78 -71 -123 0 -32 32 -84 63 -105 40 -26 92
-30 142 -10 50 19 75 49 49 59 -9 3 -27 -3 -41 -14 -48 -38 -137 -17 -162 37
-18 39 -13 71 17 105 25 27 36 31 76 31 35 0 52 -5 71 -23 20 -19 27 -21 40
-10 12 10 13 16 3 27 -36 43 -126 56 -187 26z"/>
<path d="M3320 490 c0 -123 1 -130 20 -130 18 0 20 7 20 75 0 75 19 144 39
147 6 0 17 1 24 2 13 1 27 16 27 29 0 14 -53 7 -72 -10 -17 -15 -18 -15 -18 0
0 10 -8 17 -20 17 -19 0 -20 -7 -20 -130z"/>
<path d="M3574 601 c-32 -20 -64 -74 -64 -110 0 -63 56 -130 117 -138 87 -12
153 49 153 141 0 43 -4 53 -39 87 -34 35 -44 39 -87 39 -30 0 -61 -7 -80 -19z
m104 -22 c39 -13 64 -51 64 -97 0 -67 -83 -114 -143 -82 -29 16 -52 68 -45
105 8 39 49 79 87 84 3 1 20 -4 37 -10z"/>
<path d="M3904 601 c-32 -20 -64 -74 -64 -110 0 -63 56 -130 117 -138 87 -12
153 49 153 141 0 43 -4 53 -39 87 -34 35 -44 39 -87 39 -30 0 -61 -7 -80 -19z
m99 -20 c71 -27 90 -109 38 -162 -48 -47 -116 -38 -146 21 -21 40 -19 72 6
104 32 41 63 52 102 37z"/>
<path d="M4180 490 c0 -123 1 -130 20 -130 18 0 20 7 20 69 0 37 5 81 10 98
21 58 105 79 130 33 6 -10 10 -59 10 -109 0 -86 1 -91 21 -91 20 0 21 4 17
106 -3 102 -4 107 -31 130 -36 31 -94 32 -131 3 l-26 -20 0 20 c0 14 -6 21
-20 21 -19 0 -20 -7 -20 -130z"/>
<path d="M4883 599 c-84 -54 -79 -175 10 -229 40 -25 82 -25 130 -1 29 15 37
16 37 5 0 -8 9 -14 20 -14 19 0 20 7 20 114 0 63 -3 121 -6 130 -8 20 -34 21
-34 1 0 -19 -9 -19 -34 0 -29 22 -105 19 -143 -6z m118 -25 c89 -46 58 -184
-41 -184 -86 0 -130 110 -67 167 39 36 65 40 108 17z"/>
<path d="M5180 600 c-40 -40 -24 -77 67 -147 23 -18 26 -25 17 -40 -13 -22
-50 -29 -69 -13 -16 13 -45 7 -45 -10 0 -6 16 -18 34 -27 44 -21 94 -8 115 28
22 40 7 75 -49 115 -53 38 -61 57 -32 73 14 7 25 6 40 -5 37 -25 60 5 25 32
-27 20 -80 17 -103 -6z"/>
</g>
</svg>
